<svg width="22" height="19" viewBox="0 0 22 19" fill="none" xmlns="http://www.w3.org/2000/svg">
<path d="M10.175 2.61144C10.1066 2.7676 10.122 2.9418 10.2037 3.09149C10.2856 3.24122 10.4296 3.35492 10.6016 3.40683C10.7735 3.45874 10.9564 3.44371 11.1074 3.36429C11.2583 3.28482 11.3675 3.14822 11.3969 2.9803C11.3969 2.9803 11.3969 2.9803 11.3969 2.9803C11.4405 2.64397 11.6308 2.24107 11.8791 1.91418C12.48 1.10189 13.5339 0.643169 14.6121 0.644325C14.7628 0.642679 14.912 0.646892 15.0605 0.656969C16.5202 0.746595 18.0055 1.48757 18.8006 2.55464L18.8084 2.56449C19.6994 3.65589 19.8918 4.94065 19.8568 6.32246C19.8559 6.35753 19.855 6.39295 19.8539 6.42873C19.7775 7.83647 18.9334 9.63196 17.7882 10.6921L17.7758 10.7008C17.5987 10.8401 17.4075 10.9685 17.209 11.0837C16.1651 11.6886 14.9571 12.0254 13.7722 11.9774C12.8547 11.9425 11.9512 11.7164 11.1345 11.3304C10.7337 11.1406 10.3451 10.9096 10.0171 10.6499C9.88309 10.5457 9.71133 10.5114 9.54489 10.5465C9.3784 10.5817 9.22994 10.6849 9.13311 10.832C9.03627 10.9791 9.00013 11.1562 9.03357 11.3231C9.06706 11.4899 9.16645 11.6341 9.31518 11.716C9.78419 11.9773 10.2591 12.1705 10.7452 12.3281C11.7297 12.6447 12.7562 12.7898 13.7722 12.7541C15.1113 12.7077 16.396 12.2903 17.5294 11.6357C17.7456 11.5101 17.9583 11.3786 18.1675 11.235L18.1551 11.2437C19.6342 10.0103 20.9013 8.60503 21.1288 6.47484C21.1305 6.43435 21.1318 6.39418 21.1328 6.35433C21.203 4.82752 20.6971 3.03834 19.5612 1.95198L19.5691 1.96184C18.338 0.664728 16.7184 0.144834 15.1037 0.0202432C14.9407 0.00917876 14.7772 0.00283715 14.6121 0.00118265C13.4072 -0.0224554 12.1155 0.353626 11.1607 1.24756C10.7653 1.61958 10.4185 2.0373 10.175 2.61144Z" fill="#471224"/>
<path d="M18.9978 5.16722C19.1338 5.06266 19.1978 4.90021 19.1902 4.72934C19.1825 4.55834 19.1014 4.39051 18.9674 4.2652C18.8333 4.13988 18.6604 4.0703 18.4892 4.07417C18.3182 4.07818 18.1605 4.15291 18.0653 4.29567C18.0653 4.29567 18.0653 4.29567 18.0653 4.29567C17.8967 4.58165 17.5833 4.86594 17.2442 5.07489C16.7206 5.39917 16.0908 5.57677 15.452 5.5899C15.2916 5.59339 15.1329 5.59059 14.9763 5.57966C14.1648 5.56709 13.4536 5.12201 12.5251 4.95556C12.4659 4.94434 12.4096 4.93331 12.3509 4.92143C11.3413 4.70745 10.2207 4.37628 9.1062 4.41235C8.98794 4.41236 8.87122 4.41491 8.75331 4.42005C7.79698 4.47362 6.87352 4.59352 5.91957 5.02882L5.94222 5.01671C4.24149 5.8159 2.87316 7.54566 2.87022 9.57015C2.86934 9.6993 2.8736 9.82152 2.88461 9.95172C2.93425 10.6614 3.31644 11.4411 3.93823 11.8786C4.55712 12.3251 5.26084 12.4465 5.92316 12.4824C6.09264 12.4905 6.26305 12.488 6.43561 12.471C7.53604 12.3639 8.49918 11.544 8.88436 10.4956C9.07246 10.0105 9.15841 9.49581 9.1828 8.98648C9.1938 8.81599 9.11752 8.65875 8.98745 8.54816C8.8572 8.43759 8.68089 8.38292 8.50024 8.39599C8.31959 8.40905 8.15297 8.48852 8.03999 8.61669C7.92719 8.74484 7.87432 8.91142 7.90974 9.07856C7.90974 9.07856 7.90974 9.07856 7.90974 9.07856C7.99866 9.46117 8.02512 9.85155 7.96099 10.2238C7.8459 11.0182 7.1844 11.7289 6.36419 11.8306C6.23189 11.8474 6.09238 11.8517 5.95393 11.845C5.40212 11.8203 4.87286 11.5486 4.58116 11.1693C4.28312 10.7897 4.19915 10.339 4.15638 9.84329C4.14872 9.75276 4.14471 9.66523 4.14369 9.57015C4.09896 8.09727 4.96106 6.55432 6.29766 5.7365L6.3203 5.7244C6.99628 5.32073 7.91704 5.0967 8.78114 5.05763C8.88974 5.0529 8.99726 5.05055 9.1062 5.05054C10.1623 5.01945 11.1335 5.31469 12.2244 5.54697C12.2857 5.55936 12.3445 5.57088 12.4063 5.5826C13.1761 5.70573 13.9989 6.19386 14.9318 6.2163C15.1062 6.22846 15.2792 6.23506 15.452 6.23858C16.177 6.25308 16.9134 6.15173 17.6274 5.90239C18.0966 5.73368 18.5489 5.52835 18.9978 5.16722Z" fill="#471224"/>
<path d="M14.9303 7.14464C14.966 7.12835 14.9976 7.10206 15.017 7.06722C15.0365 7.03242 15.0424 6.99241 15.0332 6.9549C15.0239 6.9174 15.0001 6.88473 14.9666 6.86299C14.9332 6.84122 14.893 6.83265 14.8538 6.83485C14.8538 6.83485 14.8538 6.83485 14.8538 6.83485C14.378 6.88892 13.9843 7.10895 13.6134 7.33555C12.935 7.76608 12.3524 8.30437 11.8238 8.87348C11.443 9.28725 11.0941 9.71843 10.7637 10.1544C9.27433 12.1172 7.94808 14.2401 6.55053 16.1779C5.7251 17.1804 4.51246 18.0558 3.22697 18.0684C3.19359 18.0685 3.16066 18.0678 3.12817 18.0664C2.11043 18.0498 1.27693 17.145 1.02856 16.212L1.0321 16.2236C0.871029 15.3813 1.08406 14.4109 1.55602 13.7165C1.59935 13.6517 1.6453 13.588 1.69277 13.527C1.85535 13.3177 2.03607 13.1257 2.24444 12.9565C2.37544 12.8492 2.45686 12.6952 2.46911 12.5263C2.48146 12.3575 2.42363 12.1878 2.31003 12.0563C2.19643 11.9249 2.03685 11.8431 1.86809 11.8308C1.69923 11.8185 1.53501 11.8767 1.40987 11.9907C1.40987 11.9907 1.40987 11.9907 1.40987 11.9907C1.13782 12.2366 0.890963 12.5118 0.688797 12.8218C0.629906 12.9122 0.573808 13.0061 0.522114 13.101C-0.0401834 14.1515 -0.147375 15.3433 0.195884 16.4655L0.199417 16.4771C0.680567 17.6803 1.7768 18.6641 3.1013 18.7041C3.14278 18.7058 3.18467 18.7067 3.22697 18.7068C4.8119 18.6781 6.14063 17.7925 7.18241 16.7263C8.81352 14.7967 10.297 12.8796 11.7817 10.9243C12.107 10.495 12.427 10.0488 12.7344 9.62214C13.1669 9.02789 13.599 8.43126 14.0758 7.89043C14.3357 7.60263 14.612 7.31156 14.9303 7.14464Z" fill="#471224"/>
</svg>
